<svg width="433" height="106" viewBox="0 0 433 106" fill="none" xmlns="http://www.w3.org/2000/svg">
<path fill-rule="evenodd" clip-rule="evenodd" d="M102 81.5L102.5 106C90 106 81 94.8 81 86V74L81 61.594C76.635 63.7737 71.7107 65 66.5 65C48.5508 65 34 50.4492 34 32.5C34 14.5507 48.5508 -8.9407e-06 66.5 -8.9407e-06C71.7107 -8.9407e-06 76.635 1.22625 81 3.40593V-8.9407e-06H102L102 81.5ZM51 32.5C51 23.3873 58.3873 16 67.5 16C76.6127 16 84 23.3873 84 32.5C84 41.6127 76.6127 49 67.5 49C58.3873 49 51 41.6127 51 32.5Z" fill="#CA9263"/>
<path fill-rule="evenodd" clip-rule="evenodd" d="M0.500122 24.5L0.00012207 0C12.5001 0 21.5001 11.2 21.5001 20V32V44.406C25.8652 42.2263 30.7894 41 36.0001 41C53.9494 41 68.5001 55.5508 68.5001 73.5C68.5001 91.4493 53.9494 106 36.0001 106C30.7894 106 25.8652 104.774 21.5001 102.594V106H0.500122L0.500122 24.5ZM51.5001 73.5C51.5001 82.6127 44.1128 90 35.0001 90C25.8874 90 18.5001 82.6127 18.5001 73.5C18.5001 64.3873 25.8874 57 35.0001 57C44.1128 57 51.5001 64.3873 51.5001 73.5Z" fill="#113E67"/>
<path d="M134.875 59.0312H123.188L123.125 52.5938H132.938C134.667 52.5938 136.083 52.375 137.188 51.9375C138.292 51.4792 139.115 50.8229 139.656 49.9688C140.219 49.0938 140.5 48.0312 140.5 46.7812C140.5 45.3646 140.229 44.2188 139.688 43.3438C139.167 42.4688 138.344 41.8333 137.219 41.4375C136.115 41.0417 134.688 40.8438 132.938 40.8438H126.438V79H117.062V33.5H132.938C135.583 33.5 137.948 33.75 140.031 34.25C142.135 34.75 143.917 35.5104 145.375 36.5312C146.833 37.5521 147.948 38.8438 148.719 40.4062C149.49 41.9479 149.875 43.7812 149.875 45.9062C149.875 47.7812 149.448 49.5104 148.594 51.0938C147.76 52.6771 146.438 53.9688 144.625 54.9688C142.833 55.9688 140.49 56.5208 137.594 56.625L134.875 59.0312ZM134.469 79H120.625L124.281 71.6875H134.469C136.115 71.6875 137.458 71.4271 138.5 70.9062C139.542 70.3646 140.312 69.6354 140.812 68.7188C141.312 67.8021 141.562 66.75 141.562 65.5625C141.562 64.2292 141.333 63.0729 140.875 62.0938C140.438 61.1146 139.729 60.3646 138.75 59.8438C137.771 59.3021 136.479 59.0312 134.875 59.0312H125.844L125.906 52.5938H137.156L139.312 55.125C142.083 55.0833 144.312 55.5729 146 56.5938C147.708 57.5938 148.948 58.8958 149.719 60.5C150.51 62.1042 150.906 63.8229 150.906 65.6562C150.906 68.5729 150.271 71.0312 149 73.0312C147.729 75.0104 145.865 76.5 143.406 77.5C140.969 78.5 137.99 79 134.469 79ZM175.625 71.375V56.3125C175.625 55.2292 175.448 54.3021 175.094 53.5312C174.74 52.7396 174.188 52.125 173.438 51.6875C172.708 51.25 171.76 51.0312 170.594 51.0312C169.594 51.0312 168.729 51.2083 168 51.5625C167.271 51.8958 166.708 52.3854 166.312 53.0312C165.917 53.6562 165.719 54.3958 165.719 55.25H156.719C156.719 53.8125 157.052 52.4479 157.719 51.1562C158.385 49.8646 159.354 48.7292 160.625 47.75C161.896 46.75 163.406 45.9688 165.156 45.4062C166.927 44.8438 168.906 44.5625 171.094 44.5625C173.719 44.5625 176.052 45 178.094 45.875C180.135 46.75 181.74 48.0625 182.906 49.8125C184.094 51.5625 184.688 53.75 184.688 56.375V70.8438C184.688 72.6979 184.802 74.2188 185.031 75.4062C185.26 76.5729 185.594 77.5938 186.031 78.4688V79H176.938C176.5 78.0833 176.167 76.9375 175.938 75.5625C175.729 74.1667 175.625 72.7708 175.625 71.375ZM176.812 58.4062L176.875 63.5H171.844C170.656 63.5 169.625 63.6354 168.75 63.9062C167.875 64.1771 167.156 64.5625 166.594 65.0625C166.031 65.5417 165.615 66.1042 165.344 66.75C165.094 67.3958 164.969 68.1042 164.969 68.875C164.969 69.6458 165.146 70.3438 165.5 70.9688C165.854 71.5729 166.365 72.0521 167.031 72.4062C167.698 72.7396 168.479 72.9062 169.375 72.9062C170.729 72.9062 171.906 72.6354 172.906 72.0938C173.906 71.5521 174.677 70.8854 175.219 70.0938C175.781 69.3021 176.073 68.5521 176.094 67.8438L178.469 71.6562C178.135 72.5104 177.677 73.3958 177.094 74.3125C176.531 75.2292 175.812 76.0938 174.938 76.9062C174.062 77.6979 173.01 78.3542 171.781 78.875C170.552 79.375 169.094 79.625 167.406 79.625C165.26 79.625 163.312 79.1979 161.562 78.3438C159.833 77.4688 158.458 76.2708 157.438 74.75C156.438 73.2083 155.938 71.4583 155.938 69.5C155.938 67.7292 156.271 66.1562 156.938 64.7812C157.604 63.4062 158.583 62.25 159.875 61.3125C161.188 60.3542 162.823 59.6354 164.781 59.1562C166.74 58.6562 169.01 58.4062 171.594 58.4062H176.812ZM200.625 52.5625V79H191.625V45.1875H200.094L200.625 52.5625ZM210.812 44.9688L210.656 53.3125C210.219 53.25 209.688 53.1979 209.062 53.1562C208.458 53.0938 207.906 53.0625 207.406 53.0625C206.135 53.0625 205.031 53.2292 204.094 53.5625C203.177 53.875 202.406 54.3438 201.781 54.9688C201.177 55.5938 200.719 56.3542 200.406 57.25C200.115 58.1458 199.948 59.1667 199.906 60.3125L198.094 59.75C198.094 57.5625 198.312 55.5521 198.75 53.7188C199.188 51.8646 199.823 50.25 200.656 48.875C201.51 47.5 202.552 46.4375 203.781 45.6875C205.01 44.9375 206.417 44.5625 208 44.5625C208.5 44.5625 209.01 44.6042 209.531 44.6875C210.052 44.75 210.479 44.8438 210.812 44.9688ZM232.25 71.375V56.3125C232.25 55.2292 232.073 54.3021 231.719 53.5312C231.365 52.7396 230.812 52.125 230.062 51.6875C229.333 51.25 228.385 51.0312 227.219 51.0312C226.219 51.0312 225.354 51.2083 224.625 51.5625C223.896 51.8958 223.333 52.3854 222.938 53.0312C222.542 53.6562 222.344 54.3958 222.344 55.25H213.344C213.344 53.8125 213.677 52.4479 214.344 51.1562C215.01 49.8646 215.979 48.7292 217.25 47.75C218.521 46.75 220.031 45.9688 221.781 45.4062C223.552 44.8438 225.531 44.5625 227.719 44.5625C230.344 44.5625 232.677 45 234.719 45.875C236.76 46.75 238.365 48.0625 239.531 49.8125C240.719 51.5625 241.312 53.75 241.312 56.375V70.8438C241.312 72.6979 241.427 74.2188 241.656 75.4062C241.885 76.5729 242.219 77.5938 242.656 78.4688V79H233.562C233.125 78.0833 232.792 76.9375 232.562 75.5625C232.354 74.1667 232.25 72.7708 232.25 71.375ZM233.438 58.4062L233.5 63.5H228.469C227.281 63.5 226.25 63.6354 225.375 63.9062C224.5 64.1771 223.781 64.5625 223.219 65.0625C222.656 65.5417 222.24 66.1042 221.969 66.75C221.719 67.3958 221.594 68.1042 221.594 68.875C221.594 69.6458 221.771 70.3438 222.125 70.9688C222.479 71.5729 222.99 72.0521 223.656 72.4062C224.323 72.7396 225.104 72.9062 226 72.9062C227.354 72.9062 228.531 72.6354 229.531 72.0938C230.531 71.5521 231.302 70.8854 231.844 70.0938C232.406 69.3021 232.698 68.5521 232.719 67.8438L235.094 71.6562C234.76 72.5104 234.302 73.3958 233.719 74.3125C233.156 75.2292 232.438 76.0938 231.562 76.9062C230.688 77.6979 229.635 78.3542 228.406 78.875C227.177 79.375 225.719 79.625 224.031 79.625C221.885 79.625 219.938 79.1979 218.188 78.3438C216.458 77.4688 215.083 76.2708 214.062 74.75C213.062 73.2083 212.562 71.4583 212.562 69.5C212.562 67.7292 212.896 66.1562 213.562 64.7812C214.229 63.4062 215.208 62.25 216.5 61.3125C217.812 60.3542 219.448 59.6354 221.406 59.1562C223.365 58.6562 225.635 58.4062 228.219 58.4062H233.438ZM257.062 52.4062V79H248.062V45.1875H256.5L257.062 52.4062ZM255.75 60.9062H253.312C253.312 58.4062 253.635 56.1562 254.281 54.1562C254.927 52.1354 255.833 50.4167 257 49C258.167 47.5625 259.552 46.4688 261.156 45.7188C262.781 44.9479 264.594 44.5625 266.594 44.5625C268.177 44.5625 269.625 44.7917 270.938 45.25C272.25 45.7083 273.375 46.4375 274.312 47.4375C275.271 48.4375 276 49.7604 276.5 51.4062C277.021 53.0521 277.281 55.0625 277.281 57.4375V79H268.219V57.4062C268.219 55.9062 268.01 54.7396 267.594 53.9062C267.177 53.0729 266.562 52.4896 265.75 52.1562C264.958 51.8021 263.979 51.625 262.812 51.625C261.604 51.625 260.552 51.8646 259.656 52.3438C258.781 52.8229 258.052 53.4896 257.469 54.3438C256.906 55.1771 256.479 56.1562 256.188 57.2812C255.896 58.4062 255.75 59.6146 255.75 60.9062ZM305.531 45.1875H313.688V77.875C313.688 80.9583 313 83.5729 311.625 85.7188C310.271 87.8854 308.375 89.5208 305.938 90.625C303.5 91.75 300.667 92.3125 297.438 92.3125C296.021 92.3125 294.521 92.125 292.938 91.75C291.375 91.375 289.875 90.7917 288.438 90C287.021 89.2083 285.833 88.2083 284.875 87L288.844 81.6875C289.885 82.8958 291.094 83.8333 292.469 84.5C293.844 85.1875 295.365 85.5312 297.031 85.5312C298.656 85.5312 300.031 85.2292 301.156 84.625C302.281 84.0417 303.146 83.1771 303.75 82.0312C304.354 80.9062 304.656 79.5417 304.656 77.9375V53L305.531 45.1875ZM282.781 62.5V61.8438C282.781 59.2604 283.094 56.9167 283.719 54.8125C284.365 52.6875 285.271 50.8646 286.438 49.3438C287.625 47.8229 289.062 46.6458 290.75 45.8125C292.438 44.9792 294.344 44.5625 296.469 44.5625C298.719 44.5625 300.604 44.9792 302.125 45.8125C303.646 46.6458 304.896 47.8333 305.875 49.375C306.854 50.8958 307.615 52.6979 308.156 54.7812C308.719 56.8438 309.156 59.1042 309.469 61.5625V63C309.156 65.3542 308.688 67.5417 308.062 69.5625C307.438 71.5833 306.615 73.3542 305.594 74.875C304.573 76.375 303.302 77.5417 301.781 78.375C300.281 79.2083 298.49 79.625 296.406 79.625C294.323 79.625 292.438 79.1979 290.75 78.3438C289.083 77.4896 287.656 76.2917 286.469 74.75C285.281 73.2083 284.365 71.3958 283.719 69.3125C283.094 67.2292 282.781 64.9583 282.781 62.5ZM291.781 61.8438V62.5C291.781 63.8958 291.917 65.1979 292.188 66.4062C292.458 67.6146 292.875 68.6875 293.438 69.625C294.021 70.5417 294.74 71.2604 295.594 71.7812C296.469 72.2812 297.5 72.5312 298.688 72.5312C300.333 72.5312 301.677 72.1875 302.719 71.5C303.76 70.7917 304.542 69.8229 305.062 68.5938C305.583 67.3646 305.885 65.9479 305.969 64.3438V60.25C305.927 58.9375 305.75 57.7604 305.438 56.7188C305.125 55.6562 304.688 54.75 304.125 54C303.562 53.25 302.833 52.6667 301.938 52.25C301.042 51.8333 299.979 51.625 298.75 51.625C297.562 51.625 296.531 51.8958 295.656 52.4375C294.802 52.9583 294.083 53.6771 293.5 54.5938C292.938 55.5104 292.51 56.5938 292.219 57.8438C291.927 59.0729 291.781 60.4062 291.781 61.8438Z" fill="#113E67"/>
<path d="M345.969 72.25L358.281 82L352.375 87.125L340.25 77.375L345.969 72.25ZM358.594 55.1875V57.3438C358.594 60.8021 358.125 63.9062 357.188 66.6562C356.271 69.4062 354.948 71.75 353.219 73.6875C351.49 75.6042 349.448 77.0729 347.094 78.0938C344.74 79.1146 342.125 79.625 339.25 79.625C336.396 79.625 333.781 79.1146 331.406 78.0938C329.031 77.0729 326.979 75.6042 325.25 73.6875C323.521 71.75 322.177 69.4062 321.219 66.6562C320.281 63.9062 319.812 60.8021 319.812 57.3438V55.1875C319.812 51.7083 320.281 48.6042 321.219 45.875C322.177 43.125 323.51 40.7812 325.219 38.8438C326.927 36.9062 328.969 35.4271 331.344 34.4062C333.719 33.3854 336.333 32.875 339.188 32.875C342.062 32.875 344.677 33.3854 347.031 34.4062C349.406 35.4271 351.458 36.9062 353.188 38.8438C354.917 40.7812 356.25 43.125 357.188 45.875C358.125 48.6042 358.594 51.7083 358.594 55.1875ZM349.125 57.3438V55.125C349.125 52.7083 348.896 50.5833 348.438 48.75C348 46.9167 347.354 45.375 346.5 44.125C345.667 42.875 344.635 41.9375 343.406 41.3125C342.177 40.6667 340.771 40.3438 339.188 40.3438C337.604 40.3438 336.198 40.6667 334.969 41.3125C333.74 41.9375 332.708 42.875 331.875 44.125C331.042 45.375 330.406 46.9167 329.969 48.75C329.531 50.5833 329.312 52.7083 329.312 55.125V57.3438C329.312 59.7396 329.531 61.8646 329.969 63.7188C330.406 65.5521 331.042 67.1042 331.875 68.375C332.729 69.625 333.771 70.5729 335 71.2188C336.25 71.8646 337.667 72.1875 339.25 72.1875C340.833 72.1875 342.229 71.8646 343.438 71.2188C344.667 70.5729 345.698 69.625 346.531 68.375C347.385 67.1042 348.031 65.5521 348.469 63.7188C348.906 61.8646 349.125 59.7396 349.125 57.3438ZM384.812 70.9062V45.1875H393.812V79H385.344L384.812 70.9062ZM385.812 63.9688L388.469 63.9062C388.469 66.1562 388.208 68.25 387.688 70.1875C387.167 72.1042 386.385 73.7708 385.344 75.1875C384.302 76.5833 382.99 77.6771 381.406 78.4688C379.823 79.2396 377.958 79.625 375.812 79.625C374.167 79.625 372.646 79.3958 371.25 78.9375C369.875 78.4583 368.688 77.7188 367.688 76.7188C366.708 75.6979 365.938 74.3958 365.375 72.8125C364.833 71.2083 364.562 69.2812 364.562 67.0312V45.1875H373.562V67.0938C373.562 68.0938 373.677 68.9375 373.906 69.625C374.156 70.3125 374.5 70.875 374.938 71.3125C375.375 71.75 375.885 72.0625 376.469 72.25C377.073 72.4375 377.74 72.5312 378.469 72.5312C380.323 72.5312 381.781 72.1562 382.844 71.4062C383.927 70.6562 384.688 69.6354 385.125 68.3438C385.583 67.0312 385.812 65.5729 385.812 63.9688ZM416.25 79.625C413.625 79.625 411.271 79.2083 409.188 78.375C407.104 77.5208 405.333 76.3438 403.875 74.8438C402.438 73.3438 401.333 71.6042 400.562 69.625C399.792 67.625 399.406 65.5 399.406 63.25V62C399.406 59.4375 399.771 57.0938 400.5 54.9688C401.229 52.8438 402.271 51 403.625 49.4375C405 47.875 406.667 46.6771 408.625 45.8438C410.583 44.9896 412.792 44.5625 415.25 44.5625C417.646 44.5625 419.771 44.9583 421.625 45.75C423.479 46.5417 425.031 47.6667 426.281 49.125C427.552 50.5833 428.51 52.3333 429.156 54.375C429.802 56.3958 430.125 58.6458 430.125 61.125V64.875H403.25V58.875H421.281V58.1875C421.281 56.9375 421.052 55.8229 420.594 54.8438C420.156 53.8438 419.49 53.0521 418.594 52.4688C417.698 51.8854 416.552 51.5938 415.156 51.5938C413.969 51.5938 412.948 51.8542 412.094 52.375C411.24 52.8958 410.542 53.625 410 54.5625C409.479 55.5 409.083 56.6042 408.812 57.875C408.562 59.125 408.438 60.5 408.438 62V63.25C408.438 64.6042 408.625 65.8542 409 67C409.396 68.1458 409.948 69.1354 410.656 69.9688C411.385 70.8021 412.26 71.4479 413.281 71.9062C414.323 72.3646 415.5 72.5938 416.812 72.5938C418.438 72.5938 419.948 72.2812 421.344 71.6562C422.76 71.0104 423.979 70.0417 425 68.75L429.375 73.5C428.667 74.5208 427.698 75.5 426.469 76.4375C425.26 77.375 423.802 78.1458 422.094 78.75C420.385 79.3333 418.438 79.625 416.25 79.625Z" fill="#CA9263"/>
</svg>
